<?xml version="1.0" encoding="utf-8"?><!-- Uploaded to: SVG Repo, www.svgrepo.com, Generator: SVG Repo Mixer Tools -->
<svg fill="#000000" width="800px" height="800px" viewBox="0 0 24 24" id="file-code-8" data-name="Flat Color" xmlns="http://www.w3.org/2000/svg" class="icon flat-color"><path id="primary" d="M13.94,18.12a6,6,0,0,0-4.77-5A5.91,5.91,0,0,0,6,13.35V5a1,1,0,0,1,.29-.7l2-2A1,1,0,0,1,9,2H20a2,2,0,0,1,2,2V20a2,2,0,0,1-2,2H13.19A6,6,0,0,0,13.94,18.12Z" style="fill: rgb(0, 0, 0);"></path><path id="secondary" d="M4.29,21.71l-2-2a1,1,0,0,1,0-1.42l2-2a1,1,0,0,1,1.42,1.42L4.41,19l1.3,1.29a1,1,0,0,1,0,1.42,1,1,0,0,1-1.42,0ZM9,22a1,1,0,0,0,.71-.29l2-2a1,1,0,0,0,0-1.42l-2-2a1,1,0,0,0-1.42,1.42L9.59,19l-1.3,1.29a1,1,0,0,0,0,1.42A1,1,0,0,0,9,22ZM9,2a1,1,0,0,0-.71.28l-2,2A1,1,0,0,0,6,5H8A1,1,0,0,0,9,4Zm5,11h4a1,1,0,0,0,0-2H14a1,1,0,0,0,0,2ZM10,9h8a1,1,0,0,0,0-2H10a1,1,0,0,0,0,2Z" style="fill: rgb(44, 169, 188);"></path></svg>